<svg width="70" height="70" viewBox="0 0 70 70" fill="none" xmlns="http://www.w3.org/2000/svg">
<g filter="url(#filter0_d_314_1105)">
<circle cx="35" cy="31" r="30" fill="#E82128"/>
</g>
<path fill-rule="evenodd" clip-rule="evenodd" d="M35.5 10C36.7082 10 37.6875 10.9794 37.6875 12.1875V41.9065L49.2658 30.3283C50.12 29.474 51.5051 29.474 52.3593 30.3283C53.2136 31.1825 53.2136 32.5676 52.3593 33.4218L37.0468 48.7343C36.1926 49.5886 34.8075 49.5886 33.9532 48.7343L18.6407 33.4218C17.7864 32.5676 17.7864 31.1825 18.6407 30.3283C19.495 29.474 20.88 29.474 21.7343 30.3283L33.3125 41.9065V12.1875C33.3125 10.9794 34.2919 10 35.5 10Z" fill="#F1F7F9"/>
<defs>
<filter id="filter0_d_314_1105" x="0" y="0" width="70" height="70" filterUnits="userSpaceOnUse" color-interpolation-filters="sRGB">
<feFlood flood-opacity="0" result="BackgroundImageFix"/>
<feColorMatrix in="SourceAlpha" type="matrix" values="0 0 0 0 0 0 0 0 0 0 0 0 0 0 0 0 0 0 127 0" result="hardAlpha"/>
<feOffset dy="4"/>
<feGaussianBlur stdDeviation="2.5"/>
<feComposite in2="hardAlpha" operator="out"/>
<feColorMatrix type="matrix" values="0 0 0 0 0 0 0 0 0 0 0 0 0 0 0 0 0 0 0.25 0"/>
<feBlend mode="normal" in2="BackgroundImageFix" result="effect1_dropShadow_314_1105"/>
<feBlend mode="normal" in="SourceGraphic" in2="effect1_dropShadow_314_1105" result="shape"/>
</filter>
</defs>
</svg>
