<svg width="112" height="34" viewBox="0 0 112 34" fill="none" xmlns="http://www.w3.org/2000/svg">
<path d="M111.204 31.5081H0V33.2664H111.204V31.5081Z" fill="#0B3B51"/>
<path d="M108.391 26.2334H100.696L101.572 29.7499H109.452L108.391 26.2334Z" fill="#E82128"/>
<path d="M85.7581 18.3196C85.7581 18.3196 85.8106 18.3231 84.935 18.3196C82.45 18.309 81.8791 20.1041 81.0823 22.7239L80.5569 24.4752H83.9035L82.3081 29.7516H90.1887L91.5021 24.4752H107.857L106.002 18.3213L100.696 0.733637H91.0643M93.0362 18.3196L95.8802 6.88923L98.7137 18.309L93.0344 18.3196H93.0362Z" fill="#E82128"/>
<path opacity="0.2" d="M83.9035 24.4752L82.3081 29.7499L91.5021 24.4734L83.9035 24.4752Z" fill="#F1F7F9"/>
<path opacity="0.2" d="M93.0362 18.3196L94.1307 13.9222L85.7581 18.3196H93.0362Z" fill="#F1F7F9"/>
<path d="M70.9251 0.733637V13.2883C71.2561 13.8872 77.93 26.2316 77.93 26.2316V0.733637H70.9251Z" fill="#E82128"/>
<path d="M61.2933 0.733637H51.6615V29.7499H58.6664V8.78232L65.2686 20.9727C69.1704 28.8708 70.0495 29.7499 75.3032 29.7499H77.0282" fill="#E82128"/>
<path opacity="0.2" d="M58.6664 8.78232L54.2883 0.733637H51.6615V5.12924L58.6664 8.78232Z" fill="#F1F7F9"/>
<path d="M47.9734 26.2334H40.2784L41.1541 29.7499H49.0346L47.9734 26.2334Z" fill="#E82128"/>
<path d="M25.3404 18.3196C25.3404 18.3196 25.3929 18.3231 24.5173 18.3196C22.0323 18.309 21.4614 20.1041 20.6646 22.7239L20.1392 24.4752H23.4858L21.8905 29.7516H29.771L31.0845 24.4752H47.4393L45.5847 18.3213L40.2784 0.733637H30.6466M32.6185 18.3196L35.4625 6.88923L38.296 18.309L32.6168 18.3196H32.6185Z" fill="#E82128"/>
<path opacity="0.2" d="M23.4858 24.4752L21.8905 29.7499L31.0845 24.4734L23.4858 24.4752Z" fill="#F1F7F9"/>
<path opacity="0.2" d="M32.6185 18.3196L33.7131 13.9222L25.3404 18.3196H32.6185Z" fill="#F1F7F9"/>
<path d="M9.6318 18.3196H1.75124V29.7499H9.6318V18.3196Z" fill="#E82128"/>
<path d="M18.388 16.5613V18.3196H1.75124V12.164H14.0099C16.6367 12.164 18.388 13.9222 18.388 16.5596V16.5613Z" fill="#E82128"/>
<path d="M19.2636 0.733637V6.88924H9.6318V9.5266H1.75124V0.733637H19.2636Z" fill="#E82128"/>
<path opacity="0.2" d="M9.6318 18.3196L1.75124 24.4752V18.3196H9.6318Z" fill="#F1F7F9"/>
</svg>
